<mxfile host="app.diagrams.net" agent="Mozilla/5.0 (Windows NT 10.0; Win64; x64) AppleWebKit/537.36 (KHTML, like Gecko) Chrome/127.0.0.0 Safari/537.36 Edg/127.0.0.0" version="24.7.7">
  <diagram name="Page-1" id="zChRa0wgHdANf_wTVHL-">
    <mxGraphModel dx="1505" dy="845" grid="1" gridSize="10" guides="1" tooltips="1" connect="1" arrows="1" fold="1" page="1" pageScale="1" pageWidth="850" pageHeight="1100" math="0" shadow="0">
      <root>
        <mxCell id="0" />
        <mxCell id="1" parent="0" />
        <mxCell id="rL4twkD7KEl90aD-xms7-3" style="rounded=0;orthogonalLoop=1;jettySize=auto;html=1;" edge="1" parent="1" source="rL4twkD7KEl90aD-xms7-1" target="rL4twkD7KEl90aD-xms7-2">
          <mxGeometry relative="1" as="geometry" />
        </mxCell>
        <mxCell id="rL4twkD7KEl90aD-xms7-1" value="المستخدم" style="shape=umlActor;verticalLabelPosition=bottom;verticalAlign=top;html=1;outlineConnect=0;" vertex="1" parent="1">
          <mxGeometry x="170" y="160" width="30" height="60" as="geometry" />
        </mxCell>
        <mxCell id="rL4twkD7KEl90aD-xms7-2" value="تسجيل الدخول" style="ellipse;whiteSpace=wrap;html=1;" vertex="1" parent="1">
          <mxGeometry x="425" y="90" width="120" height="80" as="geometry" />
        </mxCell>
        <mxCell id="rL4twkD7KEl90aD-xms7-4" style="rounded=0;orthogonalLoop=1;jettySize=auto;html=1;" edge="1" parent="1" source="rL4twkD7KEl90aD-xms7-5" target="rL4twkD7KEl90aD-xms7-6">
          <mxGeometry relative="1" as="geometry" />
        </mxCell>
        <mxCell id="rL4twkD7KEl90aD-xms7-5" value="المستخدم" style="shape=umlActor;verticalLabelPosition=bottom;verticalAlign=top;html=1;outlineConnect=0;" vertex="1" parent="1">
          <mxGeometry x="170" y="330" width="30" height="60" as="geometry" />
        </mxCell>
        <mxCell id="rL4twkD7KEl90aD-xms7-6" value="إنشاء حساب" style="ellipse;whiteSpace=wrap;html=1;" vertex="1" parent="1">
          <mxGeometry x="425" y="260" width="120" height="80" as="geometry" />
        </mxCell>
        <mxCell id="rL4twkD7KEl90aD-xms7-7" style="rounded=0;orthogonalLoop=1;jettySize=auto;html=1;" edge="1" parent="1" target="rL4twkD7KEl90aD-xms7-9">
          <mxGeometry relative="1" as="geometry">
            <mxPoint x="200" y="530" as="sourcePoint" />
          </mxGeometry>
        </mxCell>
        <mxCell id="rL4twkD7KEl90aD-xms7-8" value="المستخدم" style="shape=umlActor;verticalLabelPosition=bottom;verticalAlign=top;html=1;outlineConnect=0;" vertex="1" parent="1">
          <mxGeometry x="170" y="510" width="30" height="60" as="geometry" />
        </mxCell>
        <mxCell id="rL4twkD7KEl90aD-xms7-11" style="rounded=0;orthogonalLoop=1;jettySize=auto;html=1;exitX=1;exitY=0.5;exitDx=0;exitDy=0;dashed=1;" edge="1" parent="1" source="rL4twkD7KEl90aD-xms7-9" target="rL4twkD7KEl90aD-xms7-10">
          <mxGeometry relative="1" as="geometry" />
        </mxCell>
        <mxCell id="rL4twkD7KEl90aD-xms7-9" value="إنشاء مشروع جديد" style="ellipse;whiteSpace=wrap;html=1;" vertex="1" parent="1">
          <mxGeometry x="425" y="440" width="120" height="80" as="geometry" />
        </mxCell>
        <mxCell id="rL4twkD7KEl90aD-xms7-10" value="تسجيل الدخول" style="ellipse;whiteSpace=wrap;html=1;" vertex="1" parent="1">
          <mxGeometry x="750" y="520" width="120" height="80" as="geometry" />
        </mxCell>
        <mxCell id="rL4twkD7KEl90aD-xms7-12" value="&lt;b&gt;&amp;lt;include&amp;gt;&lt;/b&gt;" style="text;html=1;align=center;verticalAlign=middle;resizable=0;points=[];autosize=1;strokeColor=none;fillColor=none;rotation=19;" vertex="1" parent="1">
          <mxGeometry x="620" y="480" width="80" height="30" as="geometry" />
        </mxCell>
        <mxCell id="rL4twkD7KEl90aD-xms7-14" value="دعوة مستخدم للمشاركة بالمشروع" style="ellipse;whiteSpace=wrap;html=1;" vertex="1" parent="1">
          <mxGeometry x="425" y="550" width="120" height="80" as="geometry" />
        </mxCell>
        <mxCell id="rL4twkD7KEl90aD-xms7-16" style="rounded=0;orthogonalLoop=1;jettySize=auto;html=1;exitX=1;exitY=0.3333333333333333;exitDx=0;exitDy=0;exitPerimeter=0;entryX=0;entryY=0.5;entryDx=0;entryDy=0;" edge="1" parent="1" source="rL4twkD7KEl90aD-xms7-8" target="rL4twkD7KEl90aD-xms7-14">
          <mxGeometry relative="1" as="geometry">
            <mxPoint x="210" y="547" as="sourcePoint" />
            <mxPoint x="438" y="501" as="targetPoint" />
          </mxGeometry>
        </mxCell>
        <mxCell id="rL4twkD7KEl90aD-xms7-17" style="rounded=0;orthogonalLoop=1;jettySize=auto;html=1;dashed=1;exitX=1;exitY=0.5;exitDx=0;exitDy=0;entryX=0;entryY=0.5;entryDx=0;entryDy=0;" edge="1" parent="1" target="rL4twkD7KEl90aD-xms7-10" source="rL4twkD7KEl90aD-xms7-14">
          <mxGeometry relative="1" as="geometry">
            <mxPoint x="550" y="591" as="sourcePoint" />
            <mxPoint x="760" y="590" as="targetPoint" />
          </mxGeometry>
        </mxCell>
        <mxCell id="rL4twkD7KEl90aD-xms7-19" value="&lt;b&gt;&amp;lt;include&amp;gt;&lt;/b&gt;" style="text;html=1;align=center;verticalAlign=middle;resizable=0;points=[];autosize=1;strokeColor=none;fillColor=none;rotation=-10;" vertex="1" parent="1">
          <mxGeometry x="580" y="550" width="80" height="30" as="geometry" />
        </mxCell>
        <mxCell id="rL4twkD7KEl90aD-xms7-20" value="استعراض المشاريع الخاصة بالمستخدم" style="ellipse;whiteSpace=wrap;html=1;" vertex="1" parent="1">
          <mxGeometry x="425" y="670" width="120" height="80" as="geometry" />
        </mxCell>
        <mxCell id="rL4twkD7KEl90aD-xms7-21" style="rounded=0;orthogonalLoop=1;jettySize=auto;html=1;exitX=1;exitY=0.3333333333333333;exitDx=0;exitDy=0;exitPerimeter=0;entryX=0;entryY=0.5;entryDx=0;entryDy=0;" edge="1" parent="1" source="rL4twkD7KEl90aD-xms7-8" target="rL4twkD7KEl90aD-xms7-20">
          <mxGeometry relative="1" as="geometry">
            <mxPoint x="210" y="540" as="sourcePoint" />
            <mxPoint x="435" y="600" as="targetPoint" />
          </mxGeometry>
        </mxCell>
        <mxCell id="rL4twkD7KEl90aD-xms7-22" style="rounded=0;orthogonalLoop=1;jettySize=auto;html=1;dashed=1;exitX=1;exitY=0.5;exitDx=0;exitDy=0;entryX=0.028;entryY=0.611;entryDx=0;entryDy=0;entryPerimeter=0;" edge="1" parent="1" source="rL4twkD7KEl90aD-xms7-20" target="rL4twkD7KEl90aD-xms7-10">
          <mxGeometry relative="1" as="geometry">
            <mxPoint x="555" y="600" as="sourcePoint" />
            <mxPoint x="760" y="570" as="targetPoint" />
          </mxGeometry>
        </mxCell>
        <mxCell id="rL4twkD7KEl90aD-xms7-23" style="rounded=0;orthogonalLoop=1;jettySize=auto;html=1;entryX=0.004;entryY=0.456;entryDx=0;entryDy=0;entryPerimeter=0;" edge="1" parent="1" target="rL4twkD7KEl90aD-xms7-24">
          <mxGeometry relative="1" as="geometry">
            <mxPoint x="200" y="530" as="sourcePoint" />
            <mxPoint x="420" y="830" as="targetPoint" />
          </mxGeometry>
        </mxCell>
        <mxCell id="rL4twkD7KEl90aD-xms7-24" value="إنشاء مخطط جديد ضمن مشروع" style="ellipse;whiteSpace=wrap;html=1;" vertex="1" parent="1">
          <mxGeometry x="420" y="780" width="120" height="80" as="geometry" />
        </mxCell>
        <mxCell id="rL4twkD7KEl90aD-xms7-25" style="rounded=0;orthogonalLoop=1;jettySize=auto;html=1;dashed=1;exitX=1;exitY=0.5;exitDx=0;exitDy=0;entryX=0.028;entryY=0.611;entryDx=0;entryDy=0;entryPerimeter=0;" edge="1" parent="1" source="rL4twkD7KEl90aD-xms7-24">
          <mxGeometry relative="1" as="geometry">
            <mxPoint x="555" y="720" as="sourcePoint" />
            <mxPoint x="763" y="579" as="targetPoint" />
          </mxGeometry>
        </mxCell>
      </root>
    </mxGraphModel>
  </diagram>
</mxfile>
